<svg xmlns="http://www.w3.org/2000/svg" viewBox="0 0 391.58 154.74"><defs><style>.cls-1{fill:#143f90;}.cls-2{fill:#fff;}</style></defs><title>Asset 1</title><g id="Layer_2" data-name="Layer 2"><g id="ÉåÉCÉÑÅ__3" data-name="ÉåÉCÉÑÅ[_3"><rect class="cls-1" width="391.58" height="154.74"/><polygon class="cls-2" points="277.23 39.37 277.23 96.71 288.98 96.71 288.98 72.66 299.15 72.66 299.15 96.71 310.84 96.71 310.84 39.37 299.17 39.37 299.17 62.21 288.97 62.21 288.97 39.37 277.23 39.37"/><polygon class="cls-2" points="186.66 39.37 186.66 96.71 197.41 96.71 197.41 60.25 203.73 96.71 210.88 96.71 217.3 60.25 217.3 96.71 228.1 96.71 228.1 39.37 212.1 39.37 207.38 66.94 202.65 39.37 186.66 39.37"/><polygon class="cls-2" points="119.14 39.37 126.29 64.99 133.44 39.37 145.12 39.37 132.52 77.89 132.52 96.71 120.06 96.71 120.06 77.89 107.46 39.37 119.14 39.37"/><path class="cls-2" d="M169.92,39.37H154.38L144.17,96.71h11.61l2-13.64h8.77l2,13.64h11.67Zm-7.8,13L165,72.65h-5.81Z"/><path class="cls-2" d="M260.42,39.37H244.88L234.67,96.71h11.61l2-13.64H257l2,13.64h11.67Zm-7.8,13,2.91,20.32h-5.81Z"/><path class="cls-2" d="M343.23,39.37H327.69L317.48,96.71h11.61l2-13.64h8.77l2,13.64h11.67Zm-7.8,13,2.91,20.32h-5.81Z"/><path class="cls-2" d="M67.88,101.89A33.92,33.92,0,1,0,34,68,33.91,33.91,0,0,0,67.88,101.89ZM96.24,84.35a.7.7,0,0,1-.68.35l-4.66-1a27.85,27.85,0,0,1-46,0l-4.65,1a.7.7,0,0,1-.65-1.11l3.22-3.52a27.88,27.88,0,0,1,23-39.89l1.44-4.55a.68.68,0,0,1,.64-.42.71.71,0,0,1,.64.41L70,40.18A27.89,27.89,0,0,1,93,80.07l3.21,3.51A.72.72,0,0,1,96.24,84.35Z"/><path class="cls-2" d="M95.58,83.74l-7-7.48a3.5,3.5,0,0,1-4.84-2.79h0a5.23,5.23,0,0,0-2.57-3.91l-2.84-1.64L91,60.62l-1.39-2.41-14,8.11L73.1,64.91V62.1L87.15,54l-1.39-2.42L73.1,58.88V55.6A5.19,5.19,0,0,0,71,51.42h0a3.49,3.49,0,0,1,0-5.59h0l-3-9.8c0-.08-.08-.18-.17-.18a.18.18,0,0,0-.18.18l-3,9.8a3.5,3.5,0,0,1,0,5.59h0a5.22,5.22,0,0,0-2.1,4.18v3.28L50,51.57,48.61,54l14,8.11v2.82l-2.43,1.4-14-8.11-1.39,2.41,12.65,7.31-2.85,1.65h0A5.25,5.25,0,0,0,52,73.48h0a3.48,3.48,0,0,1-4.84,2.79h0l-7,7.48a.2.2,0,0,0-.06.24.18.18,0,0,0,.24.06l10-2.33A3.5,3.5,0,0,1,52,79.1a3.46,3.46,0,0,1,3.11-.19h0a5.22,5.22,0,0,0,4.67-.27L62.65,77V91.61h2.79V75.38L67.88,74l2.44,1.4V91.61H73.1V77l2.84,1.64a5.19,5.19,0,0,0,4.67.28h0a3.48,3.48,0,0,1,4.83,2.8h0l10,2.33a.2.2,0,0,0,.24-.06A.17.17,0,0,0,95.58,83.74Zm-27.7-13-2.44-1.41V66.53l2.44-1.41,2.44,1.41v2.81ZM65.44,55.6a2.44,2.44,0,0,1,4.88,0v4.89L67.88,61.9l-2.44-1.41Zm-7,20.61A2.43,2.43,0,0,1,56,72l4.23-2.45L62.65,71v2.82Zm22.24-.89a2.44,2.44,0,0,1-3.33.89L73.1,73.77V71l2.44-1.42L79.77,72A2.44,2.44,0,0,1,80.66,75.32Zm.5-5.75h0ZM76,78.63h0Zm-16.14,0Z"/><path class="cls-2" d="M84.76,115.93c3.56.61,3.65,1.64,3.65,3.51v1.28H81.67v-.83c0-1.41.22-2.24-2.77-2.34-1.26,0-2.52,0-3.75,0-2.3,0-4.6,0-6.87,0v3.18H61.51V108.47H81.83c5.79,0,6.68,1.52,6.68,4.41C88.51,114.63,87.78,115.29,84.76,115.93Zm-6.18-4.47H68.28v2.94H78.39c2,0,3.57-.11,3.57-1.44S80.69,111.46,78.58,111.46Z"/><path class="cls-2" d="M135.71,120.72l-2.17-2.21H119.86l-2,2.21h-7.5l11.85-12.25h8.82l12.06,12.25Zm-9-9.31-4.26,4.53H131Z"/><path class="cls-2" d="M185.37,120.72H173.71c-7.66,0-9.55-1.25-9.55-5.39,0-1.79-.56-4.36,2-5.72,2-1.09,5.67-1.14,8.31-1.14s5.17,0,7.75,0c6.75,0,10.34-.16,10.34,4.28v.18h-6.68c-.16-1.81-3-1.45-5.48-1.45h-6c-1.29,0-2.39.09-3.05.79a5.53,5.53,0,0,0-.35,2.31c0,2.9.44,3.2,5.76,3.2,2,0,4,0,6,0,2.43,0,3.37-.29,3.4-1.73h6.81C192.93,119.41,192.05,120.72,185.37,120.72Z"/><path class="cls-2" d="M220.14,120.72V108.47h6.74v12.25Z"/><path class="cls-2" d="M273.64,120.72,260.88,112v8.74h-6.71V108.47H264.6l12.76,8.85v-8.85h6.77v12.25Z"/><path class="cls-2" d="M326.76,120.72H313.87c-7,0-7.59-2.22-7.59-5.44,0-4.43-.72-6.81,9.26-6.81h11.35c5.42,0,7.78.84,7.78,4v.26h-6.56c-.25-1.55-2.32-1.24-4.53-1.24h-4.73c-4.31,0-5.83,0-5.83,2.57,0,3.29-.28,3.73,6,3.73,2,0,4.13,0,6.18,0a4.26,4.26,0,0,0,2.64-.54.81.81,0,0,0,.19-.59v-.4h-8.34v-2.45h15.12c0,.9.06,1.81.06,2.73C334.89,119.86,333,120.72,326.76,120.72Z"/></g></g></svg>